<mxfile host="app.diagrams.net" modified="2023-08-21T15:58:05.070Z" agent="Mozilla/5.0 (Windows NT 10.0; Win64; x64) AppleWebKit/537.36 (KHTML, like Gecko) Chrome/116.0.0.0 Safari/537.36" etag="8LJo5J0esL6NXPcLe1eE" version="21.6.8" type="github">
  <diagram name="Page-1" id="cuv4qX0XvQO64fe430ii">
    <mxGraphModel dx="880" dy="528" grid="1" gridSize="10" guides="1" tooltips="1" connect="1" arrows="1" fold="1" page="1" pageScale="1" pageWidth="850" pageHeight="1100" math="0" shadow="0">
      <root>
        <mxCell id="0" />
        <mxCell id="1" parent="0" />
        <mxCell id="hG_7EdFpYgyWdrKx_JpA-23" value="" style="rounded=0;whiteSpace=wrap;html=1;" vertex="1" parent="1">
          <mxGeometry x="270" y="80" width="290" height="400" as="geometry" />
        </mxCell>
        <mxCell id="hG_7EdFpYgyWdrKx_JpA-24" value="view groups in common" style="ellipse;whiteSpace=wrap;html=1;" vertex="1" parent="1">
          <mxGeometry x="305" y="90" width="220" height="40" as="geometry" />
        </mxCell>
        <mxCell id="hG_7EdFpYgyWdrKx_JpA-25" value="host video and voice call" style="ellipse;whiteSpace=wrap;html=1;" vertex="1" parent="1">
          <mxGeometry x="305" y="200" width="210" height="40" as="geometry" />
        </mxCell>
        <mxCell id="hG_7EdFpYgyWdrKx_JpA-26" value="update usersdetails" style="ellipse;whiteSpace=wrap;html=1;" vertex="1" parent="1">
          <mxGeometry x="320" y="350" width="170" height="40" as="geometry" />
        </mxCell>
        <mxCell id="hG_7EdFpYgyWdrKx_JpA-40" value="" style="group" vertex="1" connectable="0" parent="1">
          <mxGeometry x="90" y="200" width="120" height="150" as="geometry" />
        </mxCell>
        <object label="Actor" id="hG_7EdFpYgyWdrKx_JpA-32">
          <mxCell style="shape=umlActor;verticalLabelPosition=bottom;verticalAlign=top;html=1;outlineConnect=0;" vertex="1" parent="hG_7EdFpYgyWdrKx_JpA-40">
            <mxGeometry x="20" width="70" height="120" as="geometry" />
          </mxCell>
        </object>
        <mxCell id="hG_7EdFpYgyWdrKx_JpA-39" value="User" style="rounded=0;whiteSpace=wrap;html=1;" vertex="1" parent="hG_7EdFpYgyWdrKx_JpA-40">
          <mxGeometry y="120" width="120" height="30" as="geometry" />
        </mxCell>
        <mxCell id="hG_7EdFpYgyWdrKx_JpA-50" value="" style="endArrow=none;html=1;rounded=0;entryX=0.009;entryY=0.75;entryDx=0;entryDy=0;entryPerimeter=0;" edge="1" parent="hG_7EdFpYgyWdrKx_JpA-40" target="hG_7EdFpYgyWdrKx_JpA-52">
          <mxGeometry width="50" height="50" relative="1" as="geometry">
            <mxPoint x="80" y="80" as="sourcePoint" />
            <mxPoint x="187" y="-40" as="targetPoint" />
          </mxGeometry>
        </mxCell>
        <mxCell id="hG_7EdFpYgyWdrKx_JpA-41" value="" style="group" vertex="1" connectable="0" parent="1">
          <mxGeometry x="670" y="180" width="120" height="150" as="geometry" />
        </mxCell>
        <object label="Actor" id="hG_7EdFpYgyWdrKx_JpA-42">
          <mxCell style="shape=umlActor;verticalLabelPosition=bottom;verticalAlign=top;html=1;outlineConnect=0;" vertex="1" parent="hG_7EdFpYgyWdrKx_JpA-41">
            <mxGeometry x="20" width="70" height="120" as="geometry" />
          </mxCell>
        </object>
        <mxCell id="hG_7EdFpYgyWdrKx_JpA-43" value="Admin" style="rounded=0;whiteSpace=wrap;html=1;" vertex="1" parent="hG_7EdFpYgyWdrKx_JpA-41">
          <mxGeometry y="120" width="120" height="30" as="geometry" />
        </mxCell>
        <mxCell id="hG_7EdFpYgyWdrKx_JpA-44" value="delete user account" style="ellipse;whiteSpace=wrap;html=1;" vertex="1" parent="1">
          <mxGeometry x="315" y="250" width="180" height="40" as="geometry" />
        </mxCell>
        <mxCell id="hG_7EdFpYgyWdrKx_JpA-45" value="create user account" style="ellipse;whiteSpace=wrap;html=1;" vertex="1" parent="1">
          <mxGeometry x="330" y="410" width="170" height="40" as="geometry" />
        </mxCell>
        <mxCell id="hG_7EdFpYgyWdrKx_JpA-47" value="" style="endArrow=none;html=1;rounded=0;entryX=0;entryY=0.5;entryDx=0;entryDy=0;" edge="1" parent="1" target="hG_7EdFpYgyWdrKx_JpA-24">
          <mxGeometry width="50" height="50" relative="1" as="geometry">
            <mxPoint x="160" y="260" as="sourcePoint" />
            <mxPoint x="220" y="220" as="targetPoint" />
          </mxGeometry>
        </mxCell>
        <mxCell id="hG_7EdFpYgyWdrKx_JpA-48" value="" style="endArrow=none;html=1;rounded=0;entryX=0;entryY=0.5;entryDx=0;entryDy=0;" edge="1" parent="1" target="hG_7EdFpYgyWdrKx_JpA-26">
          <mxGeometry width="50" height="50" relative="1" as="geometry">
            <mxPoint x="160" y="290" as="sourcePoint" />
            <mxPoint x="277" y="156" as="targetPoint" />
          </mxGeometry>
        </mxCell>
        <mxCell id="hG_7EdFpYgyWdrKx_JpA-49" value="" style="endArrow=none;html=1;rounded=0;" edge="1" parent="1">
          <mxGeometry width="50" height="50" relative="1" as="geometry">
            <mxPoint x="490" y="317" as="sourcePoint" />
            <mxPoint x="710" y="230" as="targetPoint" />
            <Array as="points">
              <mxPoint x="620" y="270" />
            </Array>
          </mxGeometry>
        </mxCell>
        <mxCell id="hG_7EdFpYgyWdrKx_JpA-52" value="view all users in the platform" style="ellipse;whiteSpace=wrap;html=1;" vertex="1" parent="1">
          <mxGeometry x="295" y="140" width="220" height="40" as="geometry" />
        </mxCell>
        <mxCell id="hG_7EdFpYgyWdrKx_JpA-53" value="make use admin" style="ellipse;whiteSpace=wrap;html=1;" vertex="1" parent="1">
          <mxGeometry x="320" y="300" width="180" height="40" as="geometry" />
        </mxCell>
        <mxCell id="hG_7EdFpYgyWdrKx_JpA-57" value="" style="endArrow=none;html=1;rounded=0;exitX=0.793;exitY=0.85;exitDx=0;exitDy=0;exitPerimeter=0;" edge="1" parent="1" source="hG_7EdFpYgyWdrKx_JpA-23">
          <mxGeometry width="50" height="50" relative="1" as="geometry">
            <mxPoint x="490" y="350" as="sourcePoint" />
            <mxPoint x="710" y="263" as="targetPoint" />
            <Array as="points">
              <mxPoint x="630" y="310" />
            </Array>
          </mxGeometry>
        </mxCell>
        <mxCell id="hG_7EdFpYgyWdrKx_JpA-59" value="" style="endArrow=none;html=1;rounded=0;entryX=0;entryY=0.5;entryDx=0;entryDy=0;" edge="1" parent="1" target="hG_7EdFpYgyWdrKx_JpA-25">
          <mxGeometry width="50" height="50" relative="1" as="geometry">
            <mxPoint x="170" y="290" as="sourcePoint" />
            <mxPoint x="307" y="180" as="targetPoint" />
          </mxGeometry>
        </mxCell>
        <mxCell id="hG_7EdFpYgyWdrKx_JpA-60" value="" style="endArrow=none;html=1;rounded=0;" edge="1" parent="1">
          <mxGeometry width="50" height="50" relative="1" as="geometry">
            <mxPoint x="490" y="370" as="sourcePoint" />
            <mxPoint x="680" y="260" as="targetPoint" />
          </mxGeometry>
        </mxCell>
        <mxCell id="hG_7EdFpYgyWdrKx_JpA-62" value="" style="endArrow=none;html=1;rounded=0;exitX=0.793;exitY=0.85;exitDx=0;exitDy=0;exitPerimeter=0;" edge="1" parent="1">
          <mxGeometry width="50" height="50" relative="1" as="geometry">
            <mxPoint x="490" y="277" as="sourcePoint" />
            <mxPoint x="690" y="230" as="targetPoint" />
            <Array as="points">
              <mxPoint x="620" y="167" />
            </Array>
          </mxGeometry>
        </mxCell>
        <mxCell id="hG_7EdFpYgyWdrKx_JpA-64" value="" style="endArrow=none;html=1;rounded=0;exitX=0.955;exitY=0.75;exitDx=0;exitDy=0;exitPerimeter=0;" edge="1" parent="1" source="hG_7EdFpYgyWdrKx_JpA-24">
          <mxGeometry width="50" height="50" relative="1" as="geometry">
            <mxPoint x="570" y="185" as="sourcePoint" />
            <mxPoint x="710" y="240" as="targetPoint" />
          </mxGeometry>
        </mxCell>
        <mxCell id="hG_7EdFpYgyWdrKx_JpA-65" value="" style="endArrow=none;html=1;rounded=0;exitX=0.955;exitY=0.75;exitDx=0;exitDy=0;exitPerimeter=0;" edge="1" parent="1">
          <mxGeometry width="50" height="50" relative="1" as="geometry">
            <mxPoint x="510" y="160" as="sourcePoint" />
            <mxPoint x="710" y="260" as="targetPoint" />
          </mxGeometry>
        </mxCell>
      </root>
    </mxGraphModel>
  </diagram>
</mxfile>
